<?xml version="1.0" standalone="no"?>
<!DOCTYPE svg PUBLIC "-//W3C//DTD SVG 20010904//EN"
 "http://www.w3.org/TR/2001/REC-SVG-20010904/DTD/svg10.dtd">
<svg version="1.0" xmlns="http://www.w3.org/2000/svg"
 width="894.000000pt" height="503.000000pt" viewBox="0 0 894.000000 503.000000"
 preserveAspectRatio="xMidYMid meet">

<g transform="translate(0.000000,503.000000) scale(0.100000,-0.100000)"
fill="#000000" stroke="none">
<path d="M4228 4433 c1 -329 4 -604 7 -610 2 -7 18 -13 35 -13 17 0 33 6 35
13 3 6 6 281 7 610 l3 597 -45 0 -45 0 3 -597z"/>
<path d="M4418 4433 c1 -329 4 -604 7 -610 2 -7 18 -13 35 -13 17 0 33 6 35
13 3 6 6 281 7 610 l3 597 -45 0 -45 0 3 -597z"/>
<path d="M4618 4428 c1 -332 4 -609 7 -615 2 -7 16 -13 30 -13 14 0 28 6 30
13 3 6 6 283 7 615 l3 602 -40 0 -40 0 3 -602z"/>
<path d="M4040 4403 l5 -618 26 -3 c14 -2 31 3 37 11 9 10 12 182 14 620 l3
607 -45 0 -45 0 5 -617z"/>
<path d="M4810 4405 l0 -615 25 -16 c57 -37 55 -61 55 621 l0 625 -40 0 -40 0
0 -615z"/>
<path d="M3868 4999 c-17 -9 -18 -50 -18 -638 0 -669 -2 -648 48 -630 l22 8 0
624 c0 674 1 667 -52 636z"/>
<path d="M5012 4998 c-9 -9 -12 -166 -12 -643 0 -611 1 -632 19 -649 11 -10
28 -16 38 -14 17 3 18 33 21 647 1 467 -1 648 -9 657 -14 17 -41 18 -57 2z"/>
<path d="M3680 4980 l-25 -6 -3 -669 c-1 -369 0 -676 3 -683 3 -9 10 -10 24
-2 54 28 51 -12 51 700 0 517 -3 659 -12 662 -7 3 -24 2 -38 -2z"/>
<path d="M5197 4983 c-4 -3 -7 -311 -7 -683 l0 -677 23 -21 c13 -12 31 -22 40
-22 16 0 17 50 17 695 0 676 -1 695 -19 705 -23 12 -45 13 -54 3z"/>
<path d="M3467 4953 c-11 -10 -8 -1491 2 -1497 5 -3 23 10 40 29 l31 36 0 719
0 720 -33 0 c-19 0 -37 -3 -40 -7z"/>
<path d="M5397 4954 c-4 -4 -7 -344 -7 -755 l0 -748 24 -28 c17 -20 28 -25 35
-17 8 7 10 240 9 780 l-3 769 -25 3 c-14 2 -29 0 -33 -4z"/>
<path d="M3288 4929 c-17 -9 -18 -91 -18 -1494 0 -1283 2 -1485 14 -1485 8 0
26 4 40 10 l26 10 0 389 c0 327 -3 399 -16 448 -9 32 -18 108 -21 168 -4 92
-2 123 16 190 21 79 21 89 19 925 -3 837 -3 845 -23 847 -11 2 -28 -2 -37 -8z"/>
<path d="M5584 4927 c-2 -7 -2 -429 0 -937 3 -509 5 -950 5 -980 -4 -900 -4
-895 11 -930 23 -53 21 -305 -3 -385 -16 -56 -17 -117 -15 -830 l3 -770 23 -3
c56 -8 52 -182 52 2422 0 1855 -3 2405 -12 2414 -16 16 -57 15 -64 -1z"/>
<path d="M5783 4903 c-10 -4 -13 -249 -13 -1178 0 -710 4 -1176 9 -1180 5 -3
12 21 16 52 12 116 27 219 41 274 19 78 21 2008 2 2027 -12 12 -33 14 -55 5z"/>
<path d="M3087 4893 c-4 -3 -7 -419 -7 -922 0 -788 2 -924 15 -971 8 -30 21
-79 27 -109 12 -52 12 -54 -15 -75 l-27 -22 0 -372 0 -372 25 -12 c14 -6 25
-15 25 -20 0 -5 4 -6 10 -3 6 4 10 512 10 1445 l0 1440 -28 0 c-16 0 -32 -3
-35 -7z"/>
<path d="M2892 4858 c-9 -9 -12 -168 -12 -713 l0 -701 27 -42 c15 -23 33 -42
40 -42 11 0 13 146 11 753 l-3 752 -25 3 c-14 2 -31 -3 -38 -10z"/>
<path d="M5967 4863 c-11 -11 -8 -1591 3 -1598 5 -3 23 15 40 41 l30 48 0 742
c0 408 -3 749 -6 758 -6 16 -54 22 -67 9z"/>
<path d="M2713 4820 l-23 -9 0 -590 0 -589 31 -26 c17 -14 35 -24 40 -20 5 3
9 258 9 619 0 550 -2 613 -16 619 -9 3 -16 6 -17 5 -1 0 -12 -4 -24 -9z"/>
<path d="M6157 4823 c-4 -3 -7 -298 -7 -655 0 -707 -2 -688 54 -615 l26 34 0
609 c0 461 -3 613 -12 622 -13 13 -50 16 -61 5z"/>
<path d="M2516 4765 c-14 -15 -16 -68 -16 -515 0 -543 -1 -530 56 -530 l24 0
-2 528 -3 527 -21 3 c-12 2 -29 -4 -38 -13z"/>
<path d="M6357 4773 c-12 -12 -8 -1081 4 -1089 6 -3 23 2 37 13 l27 20 3 519
c2 479 1 520 -15 532 -18 13 -46 16 -56 5z"/>
<path d="M6547 4723 c-11 -11 -8 -941 3 -948 5 -3 22 0 37 7 l28 13 3 450 c2
449 2 450 -19 468 -22 18 -41 22 -52 10z"/>
<path d="M2317 4713 c-4 -3 -7 -208 -7 -455 l0 -449 23 -8 c47 -18 47 -18 47
465 l0 454 -28 0 c-16 0 -32 -3 -35 -7z"/>
<path d="M6737 4663 c-4 -3 -7 -192 -7 -419 0 -401 1 -413 20 -419 10 -3 28
-1 40 5 20 10 20 18 20 409 0 307 -3 401 -12 409 -19 14 -53 23 -61 15z"/>
<path d="M2128 4649 c-17 -9 -18 -39 -18 -403 0 -424 0 -422 52 -414 l23 3 3
413 2 412 -22 0 c-13 0 -31 -5 -40 -11z"/>
<path d="M1947 4584 l-27 -15 2 -362 3 -362 35 0 35 0 0 374 c0 241 -4 375
-10 377 -5 2 -22 -4 -38 -12z"/>
<path d="M6925 4587 c-3 -6 -4 -176 -3 -377 l3 -365 35 0 35 0 3 360 c2 357 2
360 -19 378 -25 20 -48 22 -54 4z"/>
<path d="M1753 4505 l-23 -16 0 -330 c0 -359 -1 -356 56 -330 l24 11 -2 337
c-3 365 -3 364 -55 328z"/>
<path d="M7120 4186 c0 -359 0 -362 52 -354 l23 3 3 325 c2 321 2 325 -19 343
-12 9 -30 17 -40 17 -18 0 -19 -13 -19 -334z"/>
<path d="M7317 4433 c-4 -3 -7 -145 -7 -315 l0 -308 27 -11 c54 -20 53 -24 53
304 0 232 -3 307 -12 315 -19 14 -53 23 -61 15z"/>
<path d="M1562 4414 c-22 -15 -22 -16 -22 -325 l0 -309 28 0 c15 0 33 5 40 12
9 9 12 95 12 325 0 293 -1 313 -18 313 -10 0 -28 -7 -40 -16z"/>
<path d="M7505 4327 c-3 -7 -4 -140 -3 -296 l3 -284 27 -20 c14 -11 31 -16 37
-13 8 5 11 98 11 301 0 292 0 294 -22 309 -27 19 -47 20 -53 3z"/>
<path d="M1363 4315 c-23 -16 -23 -16 -23 -321 0 -332 1 -336 55 -300 l25 17
-2 307 c-3 332 -3 333 -55 297z"/>
<path d="M7696 4232 c-3 -3 -6 -140 -6 -304 l0 -299 25 -25 c48 -48 50 -40 53
286 2 265 0 305 -13 321 -17 18 -50 30 -59 21z"/>
<path d="M1182 4210 l-32 -20 0 -329 c0 -226 3 -332 11 -337 6 -3 24 6 40 22
l29 28 0 322 c0 178 -4 325 -8 328 -5 3 -23 -4 -40 -14z"/>
<path d="M991 4084 l-31 -26 2 -396 c2 -256 7 -397 13 -397 6 0 22 23 37 50
l28 50 0 367 c0 211 -4 369 -9 372 -5 4 -23 -6 -40 -20z"/>
<path d="M7890 3759 c0 -232 4 -347 11 -362 17 -33 51 -67 60 -61 5 3 9 167 9
365 0 346 -1 360 -20 379 -11 11 -29 20 -40 20 -20 0 -20 -7 -20 -341z"/>
<path d="M8087 3963 c-4 -3 -7 -216 -7 -472 0 -398 3 -473 16 -511 9 -25 18
-69 21 -98 5 -46 3 -55 -16 -68 -21 -15 -21 -18 -21 -389 0 -370 0 -374 21
-389 20 -13 21 -20 15 -77 -4 -35 -14 -81 -22 -103 -11 -33 -14 -118 -14 -413
0 -204 4 -374 8 -377 5 -3 23 4 40 14 l32 20 -2 1415 -3 1416 -31 19 c-17 11
-34 17 -37 13z"/>
<path d="M792 3937 l-22 -23 0 -662 c0 -416 4 -663 10 -667 11 -7 16 16 24 95
3 30 13 91 23 135 14 68 17 157 20 613 4 513 3 532 -15 532 -10 0 -28 -10 -40
-23z"/>
<path d="M8276 3803 c-3 -3 -6 -586 -6 -1295 0 -1401 -3 -1325 54 -1257 l26
31 0 1232 c0 1097 -2 1234 -16 1254 -17 25 -49 44 -58 35z"/>
<path d="M600 3761 l-30 -29 0 -1220 c0 -1218 0 -1219 21 -1246 11 -14 29 -26
40 -26 19 0 19 23 19 1269 0 845 -3 1272 -10 1276 -6 4 -24 -7 -40 -24z"/>
<path d="M8467 3603 c-9 -8 -9 -2167 -1 -2176 11 -11 33 5 54 38 20 32 20 46
20 1051 l0 1018 -26 38 c-27 38 -35 44 -47 31z"/>
<path d="M418 3573 c-9 -10 -21 -28 -27 -40 -16 -31 -16 -2005 0 -2036 17 -33
51 -67 60 -61 5 3 9 489 9 1080 0 1133 1 1106 -42 1057z"/>
<path d="M1925 3408 c-3 -7 -4 -443 -3 -968 l3 -955 35 0 35 0 0 965 0 965
-33 3 c-20 2 -34 -2 -37 -10z"/>
<path d="M6932 3407 c-9 -11 -11 -251 -10 -968 l3 -954 35 0 35 0 0 965 0 965
-26 3 c-14 2 -31 -3 -37 -11z"/>
<path d="M2115 3388 c-3 -7 -4 -436 -3 -953 l3 -940 23 -3 c55 -8 52 -56 52
954 0 912 0 934 -19 944 -26 14 -51 13 -56 -2z"/>
<path d="M7127 3393 c-4 -3 -7 -431 -7 -950 0 -1021 -3 -965 53 -944 l27 11 0
935 0 935 -26 10 c-30 12 -38 12 -47 3z"/>
<path d="M1765 3368 c-11 -6 -23 -16 -27 -22 -4 -6 -8 -410 -8 -898 l0 -888
25 -16 c58 -38 55 -89 53 912 -2 601 -6 918 -13 920 -5 2 -19 -2 -30 -8z"/>
<path d="M6765 3368 c-11 -6 -23 -16 -27 -22 -4 -6 -8 -410 -8 -898 l0 -887
22 -15 c12 -9 30 -16 40 -16 17 0 18 43 16 922 -2 603 -6 922 -13 924 -5 2
-19 -2 -30 -8z"/>
<path d="M4427 3354 c-9 -9 -10 -566 -1 -588 4 -10 18 -16 40 -16 l34 0 -2
303 -3 302 -30 3 c-17 2 -34 0 -38 -4z"/>
<path d="M4242 3338 c-9 -9 -12 -78 -12 -270 l0 -258 24 -12 c56 -25 57 -23
54 274 l-3 273 -25 3 c-14 2 -31 -3 -38 -10z"/>
<path d="M8667 3333 c-11 -11 -8 -1631 3 -1638 5 -3 23 15 40 41 l30 48 0 731
0 732 -31 46 c-33 51 -33 50 -42 40z"/>
<path d="M223 3288 l-28 -42 0 -735 0 -736 29 -42 c16 -24 32 -40 37 -37 13 8
12 1634 -1 1634 -5 0 -22 -19 -37 -42z"/>
<path d="M4627 3324 c-4 -4 -7 -141 -7 -305 0 -284 1 -299 19 -309 11 -5 27
-7 35 -4 15 6 16 41 14 313 l-3 306 -25 3 c-14 2 -29 0 -33 -4z"/>
<path d="M4068 3279 l-28 -21 0 -182 c0 -168 2 -184 19 -200 11 -10 28 -16 38
-14 17 3 18 18 18 217 0 134 -4 215 -10 217 -5 2 -22 -6 -37 -17z"/>
<path d="M2316 3283 c-11 -12 -7 -1691 5 -1698 6 -4 21 3 35 16 l24 22 0 804
c0 529 -4 811 -10 823 -12 23 -44 42 -54 33z"/>
<path d="M7316 3283 c-10 -10 -7 -1691 3 -1697 5 -4 23 6 40 20 l31 26 0 788
c0 575 -3 796 -12 814 -12 28 -52 59 -62 49z"/>
<path d="M4816 3233 c-3 -3 -6 -129 -6 -280 l0 -273 24 -12 c55 -25 56 -22 56
260 0 255 0 259 -22 279 -31 27 -44 34 -52 26z"/>
<path d="M6571 3196 l-31 -45 0 -699 0 -699 30 -42 c17 -23 35 -39 40 -36 13
8 14 1552 1 1560 -6 3 -24 -15 -40 -39z"/>
<path d="M1565 3193 l-25 -38 0 -693 c0 -494 3 -700 11 -715 17 -33 51 -67 60
-61 5 3 9 351 9 775 0 839 2 815 -55 732z"/>
<path d="M5007 2954 c-4 -4 -7 -78 -7 -165 0 -146 1 -159 19 -169 11 -5 29
-10 41 -10 20 0 20 3 18 173 l-3 172 -30 3 c-17 2 -34 0 -38 -4z"/>
<path d="M5197 2954 c-4 -4 -7 -94 -7 -200 l0 -194 25 -16 c53 -35 56 -24 53
203 l-3 208 -30 3 c-17 2 -34 0 -38 -4z"/>
<path d="M5397 2954 c-4 -4 -7 -121 -7 -260 l0 -252 26 -32 c16 -18 31 -27 36
-22 4 4 7 134 6 288 l-3 279 -25 3 c-14 2 -29 0 -33 -4z"/>
<path d="M7507 2944 c-11 -11 -9 -1072 2 -1079 11 -6 31 56 31 95 0 14 9 42
20 63 19 35 20 56 20 405 0 324 -2 370 -16 391 -9 13 -24 48 -33 78 -9 30 -19
51 -24 47z"/>
<path d="M2500 2396 c0 -328 4 -537 10 -541 9 -6 23 37 36 110 3 22 12 50 20
62 22 34 21 775 -1 793 -8 7 -21 33 -28 58 -8 25 -19 48 -25 50 -9 3 -12 -130
-12 -532z"/>
<path d="M8850 2515 c0 -245 4 -395 10 -395 5 0 19 33 30 73 12 39 23 78 26
85 14 45 23 249 14 351 -10 114 -52 281 -71 281 -5 0 -9 -155 -9 -395z"/>
<path d="M39 2828 c-12 -40 -25 -102 -30 -138 -11 -85 -11 -279 0 -355 12 -84
50 -207 62 -200 12 8 12 752 0 760 -6 3 -20 -27 -32 -67z"/>
<path d="M2695 2798 c-3 -7 -4 -180 -3 -383 l3 -370 35 0 35 0 0 380 0 380
-33 3 c-20 2 -34 -2 -37 -10z"/>
<path d="M2885 2798 c-3 -7 -4 -180 -3 -383 l3 -370 35 0 35 0 0 380 0 380
-33 3 c-20 2 -34 -2 -37 -10z"/>
<path d="M7695 2798 c-3 -7 -4 -180 -3 -383 l3 -370 35 0 35 0 0 380 0 380
-33 3 c-20 2 -34 -2 -37 -10z"/>
<path d="M7895 2798 c-3 -7 -4 -180 -3 -383 l3 -370 35 0 35 0 0 380 0 380
-33 3 c-20 2 -34 -2 -37 -10z"/>
<path d="M6403 2693 c-4 -21 -8 -132 -8 -248 0 -209 7 -291 26 -280 5 4 9 118
9 280 0 262 -8 337 -27 248z"/>
<path d="M1396 2597 c-8 -29 -8 -275 0 -304 15 -56 24 1 24 152 0 151 -9 208
-24 152z"/>
<path d="M3466 2570 c-4 -8 -5 -148 -4 -310 l3 -295 35 0 35 0 3 272 2 273
-34 37 c-27 29 -36 35 -40 23z"/>
<path d="M3657 2403 c-4 -3 -7 -102 -7 -220 0 -231 1 -234 53 -214 l27 11 0
192 c0 106 -4 198 -8 204 -6 10 -45 34 -55 34 -2 0 -7 -3 -10 -7z"/>
<path d="M3857 2313 c-4 -3 -7 -79 -7 -168 0 -127 3 -165 14 -174 8 -6 19 -25
26 -41 7 -16 16 -27 21 -24 5 3 9 93 9 199 0 182 -1 195 -19 205 -23 12 -35
13 -44 3z"/>
<path d="M5776 2310 c-3 -8 -5 -503 -4 -1100 l3 -1085 23 -3 c55 -8 52 -55 52
937 0 758 -3 925 -14 969 -8 29 -20 95 -26 145 -15 116 -25 157 -34 137z"/>
<path d="M777 2303 c-4 -3 -7 -273 -7 -599 l0 -592 31 -26 c17 -14 35 -24 40
-20 5 3 9 191 9 449 0 369 -3 455 -16 512 -9 37 -22 115 -29 172 -14 106 -17
116 -28 104z"/>
<path d="M4047 2263 c-4 -3 -7 -145 -7 -314 0 -306 0 -308 22 -329 12 -11 29
-19 38 -18 13 3 15 45 18 318 2 311 2 315 -19 333 -22 18 -41 22 -52 10z"/>
<path d="M4237 2223 c-4 -3 -7 -154 -7 -333 0 -353 0 -356 52 -348 l23 3 3
326 c2 254 -1 329 -10 336 -19 15 -53 24 -61 16z"/>
<path d="M4425 2167 c-3 -7 -4 -156 -3 -332 l3 -320 35 0 35 0 3 320 c2 292 1
321 -15 333 -22 16 -52 16 -58 -1z"/>
<path d="M4627 2124 c-4 -4 -7 -137 -7 -296 0 -309 1 -314 49 -288 21 11 21
15 19 298 l-3 287 -25 3 c-14 2 -29 0 -33 -4z"/>
<path d="M4823 2073 c-10 -4 -13 -61 -13 -243 0 -260 2 -270 54 -229 l26 20 0
208 c0 186 -2 210 -17 223 -26 21 -36 26 -50 21z"/>
<path d="M3130 1975 c0 -4 -11 -49 -25 -101 l-25 -94 0 -820 0 -819 21 -11
c51 -28 49 -71 49 919 0 602 -3 922 -10 926 -5 3 -10 3 -10 0z"/>
<path d="M3277 1763 c-4 -3 -7 -379 -7 -834 l0 -829 25 -6 c58 -15 55 -60 55
731 0 585 -3 732 -13 758 -8 18 -22 67 -31 110 -18 80 -18 81 -29 70z"/>
<path d="M967 1613 c-4 -3 -7 -152 -7 -329 0 -322 0 -323 22 -338 12 -9 30
-16 40 -16 17 0 18 19 18 297 l0 296 -31 49 c-34 52 -33 51 -42 41z"/>
<path d="M5960 886 c0 -471 3 -727 10 -731 5 -3 22 0 37 7 l28 13 3 655 c1
360 0 669 -3 687 -6 32 -49 93 -66 93 -5 0 -9 -295 -9 -724z"/>
<path d="M7921 1491 l-31 -39 0 -266 c0 -289 0 -291 54 -241 l26 24 0 275 c0
155 -4 277 -9 280 -5 4 -23 -11 -40 -33z"/>
<path d="M2911 1473 l-31 -38 0 -631 c0 -690 -4 -644 56 -644 l24 0 0 669 c0
397 -4 672 -9 676 -5 3 -23 -12 -40 -32z"/>
<path d="M5415 1374 l-25 -27 0 -637 c0 -571 2 -638 16 -644 8 -3 24 -1 35 4
18 10 19 29 19 665 0 423 -4 656 -10 660 -5 3 -21 -6 -35 -21z"/>
<path d="M1157 1343 c-4 -3 -7 -118 -7 -255 l0 -248 32 -20 c17 -10 35 -17 40
-14 4 3 8 113 8 244 l0 238 -26 31 c-26 32 -35 36 -47 24z"/>
<path d="M6157 1343 c-4 -3 -7 -262 -7 -575 0 -567 0 -568 21 -568 11 0 29 5
40 10 18 10 19 27 19 548 l0 538 -28 27 c-30 29 -35 31 -45 20z"/>
<path d="M3467 1323 c-4 -3 -7 -285 -7 -625 l0 -618 27 -11 c55 -21 53 -48 53
600 l0 599 -26 31 c-26 32 -35 36 -47 24z"/>
<path d="M7717 1272 l-27 -28 0 -222 c0 -211 1 -222 19 -222 10 0 28 8 40 18
21 17 21 22 19 246 -2 149 -7 231 -13 233 -6 2 -23 -9 -38 -25z"/>
<path d="M2716 1269 l-26 -20 0 -515 0 -514 24 -12 c58 -26 56 -48 56 542 0
586 2 563 -54 519z"/>
<path d="M5217 1234 l-27 -15 2 -587 3 -587 26 -3 c14 -2 31 3 37 11 16 19 12
1189 -3 1193 -5 2 -22 -4 -38 -12z"/>
<path d="M1340 965 c0 -212 1 -226 20 -245 11 -11 29 -20 40 -20 19 0 20 7 20
225 0 212 -1 226 -20 245 -11 11 -29 20 -40 20 -19 0 -20 -7 -20 -225z"/>
<path d="M3650 625 l0 -565 24 -12 c58 -26 56 -49 56 555 0 524 -1 555 -18
570 -10 10 -28 17 -40 17 l-22 0 0 -565z"/>
<path d="M6355 1178 c-3 -7 -4 -218 -3 -468 l3 -455 26 -3 c14 -2 31 3 37 11
9 11 12 128 10 453 l-3 438 -32 19 c-26 15 -34 16 -38 5z"/>
<path d="M7535 1158 c-11 -6 -23 -16 -27 -22 -4 -6 -8 -109 -8 -228 0 -207 1
-218 19 -218 10 0 28 8 40 18 21 17 22 23 19 236 -2 135 -7 221 -13 222 -5 2
-19 -2 -30 -8z"/>
<path d="M2522 1144 l-22 -15 0 -428 c0 -462 -1 -457 52 -449 l23 3 3 453 c2
428 1 452 -16 452 -10 0 -28 -7 -40 -16z"/>
<path d="M5018 1139 c-17 -9 -18 -47 -18 -560 0 -600 -2 -577 56 -551 l24 12
0 555 0 555 -22 0 c-13 0 -31 -5 -40 -11z"/>
<path d="M3857 1103 c-4 -3 -7 -244 -7 -534 0 -496 1 -529 18 -538 11 -6 24
-6 35 0 16 9 17 48 17 534 0 508 -1 525 -19 535 -23 12 -35 13 -44 3z"/>
<path d="M1547 1093 c-4 -3 -7 -109 -7 -234 0 -247 3 -259 56 -259 l24 0 0
233 c0 214 -2 235 -18 250 -19 18 -44 22 -55 10z"/>
<path d="M4827 1088 c-15 -12 -17 -61 -19 -551 -3 -534 -3 -538 17 -533 11 3
31 6 45 6 l25 0 -3 537 c-2 410 -5 539 -15 545 -17 11 -31 10 -50 -4z"/>
<path d="M6547 1093 c-4 -3 -7 -181 -7 -395 0 -424 0 -420 55 -384 l25 16 0
370 0 369 -22 15 c-24 17 -41 20 -51 9z"/>
<path d="M7322 1078 c-9 -9 -12 -73 -12 -245 l0 -233 24 0 c54 0 57 12 54 258
l-3 227 -25 3 c-14 2 -31 -3 -38 -10z"/>
<path d="M2321 1066 c-8 -9 -11 -117 -9 -376 3 -321 5 -364 19 -373 9 -6 24
-7 33 -4 14 6 16 44 16 387 l0 380 -24 0 c-13 0 -29 -6 -35 -14z"/>
<path d="M4045 1058 c-3 -7 -6 -246 -7 -531 l-3 -517 25 0 c14 0 34 -3 45 -6
20 -5 20 -1 17 517 -2 360 -6 527 -13 536 -14 17 -58 17 -64 1z"/>
<path d="M4625 1048 c-3 -7 -6 -246 -7 -531 l-3 -517 40 0 40 0 -3 517 c-1
285 -4 524 -7 531 -2 6 -16 12 -30 12 -14 0 -28 -6 -30 -12z"/>
<path d="M6743 1053 c-10 -4 -13 -82 -13 -344 0 -370 0 -371 55 -335 l25 16 0
325 c0 310 -1 325 -19 335 -21 11 -29 11 -48 3z"/>
<path d="M1730 796 l0 -256 25 -16 c54 -35 56 -29 53 258 l-3 263 -37 3 -38 3
0 -255z"/>
<path d="M2117 1044 c-4 -4 -7 -153 -7 -330 0 -309 1 -324 19 -334 11 -5 29
-10 40 -10 21 0 21 2 19 338 l-3 337 -30 3 c-17 2 -34 0 -38 -4z"/>
<path d="M4235 1038 c-3 -7 -6 -244 -7 -526 l-3 -512 45 0 45 0 -3 512 c-1
282 -4 519 -7 526 -2 6 -18 12 -35 12 -17 0 -33 -6 -35 -12z"/>
<path d="M4425 1038 c-3 -7 -6 -244 -7 -526 l-3 -512 45 0 45 0 -3 512 c-1
282 -4 519 -7 526 -2 6 -18 12 -35 12 -17 0 -33 -6 -35 -12z"/>
<path d="M7127 1044 c-4 -4 -7 -126 -7 -271 l0 -263 23 0 c13 0 31 6 40 13 16
11 17 36 15 267 l-3 255 -30 3 c-17 2 -34 0 -38 -4z"/>
<path d="M1927 1034 c-4 -4 -7 -134 -7 -289 0 -302 0 -305 52 -305 l28 0 -2
298 -3 297 -30 3 c-17 2 -34 0 -38 -4z"/>
<path d="M6925 1028 c-3 -7 -4 -144 -3 -303 3 -287 3 -290 24 -293 12 -2 29 4
38 13 14 15 16 49 14 303 l-3 287 -33 3 c-20 2 -34 -2 -37 -10z"/>
</g>
</svg>
